<svg width="24" height="24" viewBox="0 0 24 24" fill="none" xmlns="http://www.w3.org/2000/svg">
<path d="M12.0001 4.99978C12.6701 4.99978 13.3501 5.08978 14.0001 5.25978C15.7801 3.25978 19.0301 2.41978 20.4201 2.99978C21.8201 3.57978 20.0001 9.99978 20.0001 9.99978C20.5701 11.0698 21.0001 12.2398 21.0001 13.4398C21.0001 17.8998 16.9701 20.9998 12.0001 20.9998C7.03008 20.9998 3.00008 17.9998 3.00008 13.4398C3.00008 12.1898 3.50008 11.0398 4.00008 9.99978C4.00008 9.99978 2.11008 3.57978 3.50008 2.99978C4.89008 2.41978 8.22008 3.22978 10.0001 5.22978C10.6561 5.07888 11.3269 5.00174 12.0001 4.99978Z" stroke="#0F172A" stroke-width="2" stroke-linecap="round" stroke-linejoin="round"/>
<path d="M8 14V14.5" stroke="#0F172A" stroke-width="2" stroke-linecap="round" stroke-linejoin="round"/>
<path d="M16 14V14.5" stroke="#0F172A" stroke-width="2" stroke-linecap="round" stroke-linejoin="round"/>
<path d="M11.25 16.25H12.75L12 17L11.25 16.25Z" stroke="#0F172A" stroke-width="2" stroke-linecap="round" stroke-linejoin="round"/>
</svg>
