<svg width="24" height="24" viewBox="0 0 24 24" fill="none" xmlns="http://www.w3.org/2000/svg">
<path d="M12 4C14.2972 4 16.4215 4.34755 18.0078 4.94238C18.7973 5.23843 19.5062 5.61502 20.0352 6.08398C20.527 6.52015 20.9394 7.11055 20.9932 7.83887L22.9619 14.7666L23 14.9004V15.04C23 15.8285 22.4919 16.5073 21.9736 16.999C21.4138 17.5301 20.6423 18.0345 19.7285 18.4697C17.8948 19.3431 15.3605 20 12.4541 20C9.55185 19.9999 6.80672 19.3443 4.76855 18.4883C3.75243 18.0615 2.87446 17.5699 2.23145 17.0547C1.91046 16.7975 1.62045 16.5122 1.40332 16.2021C1.19108 15.899 1.00001 15.5013 1 15.04V14.8906L1.04395 14.748L3.01855 8.28906C3.00598 8.19514 3 8.09872 3 8C3 7.19722 3.43717 6.5519 3.96484 6.08398C4.49379 5.61502 5.20273 5.23843 5.99219 4.94238C7.57848 4.34755 9.70276 4 12 4ZM19.6006 10.2539C19.1422 10.5699 18.5976 10.8364 18.0078 11.0576C16.4215 11.6525 14.2972 12 12 12C9.70276 12 7.57848 11.6525 5.99219 11.0576C5.44057 10.8508 4.92929 10.603 4.49023 10.3135L3.04102 15.0527L3.04199 15.0547C3.11613 15.1606 3.25477 15.3108 3.48242 15.4932C3.93649 15.857 4.63635 16.2637 5.54297 16.6445C7.35116 17.4039 9.83383 17.9999 12.4541 18C15.0705 18 17.3099 17.4062 18.8682 16.6641C19.6501 16.2917 20.2297 15.8968 20.5967 15.5488C20.8392 15.3187 20.9342 15.1602 20.9727 15.083L19.6006 10.2539ZM12 6C9.87903 6 8.00346 6.32451 6.69434 6.81543C6.03626 7.06222 5.5727 7.33126 5.29199 7.58008C5.01013 7.82998 5 7.97447 5 8C5 8.02553 5.01013 8.17002 5.29199 8.41992C5.5727 8.66874 6.03626 8.93778 6.69434 9.18457C8.00346 9.67549 9.87903 10 12 10C14.121 10 15.9965 9.67549 17.3057 9.18457C17.9637 8.93778 18.4273 8.66874 18.708 8.41992C18.9899 8.17002 19 8.02553 19 8C19 7.97447 18.9899 7.82998 18.708 7.58008C18.4273 7.33126 17.9637 7.06222 17.3057 6.81543C15.9965 6.32451 14.121 6 12 6Z" fill="#0F172A"/>
</svg>
