<svg width="24" height="24" viewBox="0 0 24 24" fill="none" xmlns="http://www.w3.org/2000/svg">
<mask id="path-1-inside-1_2_1957" fill="white">
<path d="M16 5C16.7501 5.50189 18.9794 7.37754 19.3877 8.0332C19.796 8.6889 20 9.37631 20 10.0947C20 10.5479 19.9274 10.9798 19.7861 11.3916C20.8088 11.9683 21.5999 12.6325 22.1582 13.3848C22.7195 14.1412 22.9999 14.934 23 15.7627C23 17.4994 21.9286 18.9731 19.7861 20.1836C17.6434 21.3941 15.0479 21 12 21C8.95208 21 6.35658 21.3941 4.21387 20.1836C2.07134 18.9731 1 17.4995 1 15.7627C1.00006 14.9339 1.2805 14.1412 1.8418 13.3848C2.39994 12.6327 3.19049 11.9682 4.21289 11.3916C4.07168 10.9798 4.00002 10.5478 4 10.0947C4 9.37631 4.20397 8.6889 4.6123 8.0332C5.02074 7.3775 7.00006 6.37674 8.5 5.5C9.99465 4.62636 11.4893 2.0186 11.5 2L16 5Z"/>
</mask>
<path d="M16 5L17.1122 3.33774L17.1094 3.3359L16 5ZM19.3877 8.0332L21.0854 6.97596L21.0854 6.97596L19.3877 8.0332ZM20 10.0947L22 10.0948V10.0947H20ZM19.7861 11.3916L17.8943 10.7427L17.3545 12.3165L18.8038 13.1337L19.7861 11.3916ZM22.1582 13.3848L23.7643 12.193L23.7643 12.1929L22.1582 13.3848ZM23 15.7627H25V15.7625L23 15.7627ZM19.7861 20.1836L20.7699 21.9249L20.77 21.9249L19.7861 20.1836ZM12 21L12 19H12V21ZM4.21387 20.1836L3.23006 21.9249L3.2301 21.9249L4.21387 20.1836ZM1 15.7627L-1 15.7625V15.7627H1ZM1.8418 13.3848L0.235728 12.1929L0.235674 12.193L1.8418 13.3848ZM4.21289 11.3916L5.19531 13.1337L6.64441 12.3165L6.10473 10.7428L4.21289 11.3916ZM4 10.0947H2V10.0948L4 10.0947ZM4.6123 8.0332L2.9147 6.97578L2.91459 6.97596L4.6123 8.0332ZM8.5 5.5L9.50926 7.22667L9.50926 7.22667L8.5 5.5ZM11.5 2L12.6094 0.335899L10.828 -0.851688L9.76431 1.00633L11.5 2ZM16 5L14.8878 6.66226C15.153 6.83966 15.8199 7.36532 16.5059 7.96488C16.8378 8.25494 17.1447 8.53669 17.3831 8.77317C17.6663 9.05406 17.7255 9.14752 17.69 9.09045L19.3877 8.0332L21.0854 6.97596C20.8457 6.59105 20.4732 6.20419 20.2001 5.9333C19.8822 5.61801 19.5084 5.27654 19.1381 4.95299C18.4199 4.32534 17.5971 3.66223 17.1122 3.33774L16 5ZM19.3877 8.0332L17.69 9.09044C17.9159 9.45325 18 9.77773 18 10.0947H20H22C22 8.97488 21.6761 7.92456 21.0854 6.97596L19.3877 8.0332ZM20 10.0947L18 10.0947C18 10.3299 17.9631 10.5423 17.8943 10.7427L19.7861 11.3916L21.6779 12.0405C21.8917 11.4172 22 10.766 22 10.0948L20 10.0947ZM19.7861 11.3916L18.8038 13.1337C19.643 13.6069 20.198 14.0994 20.5521 14.5766L22.1582 13.3848L23.7643 12.1929C23.0019 11.1656 21.9747 10.3296 20.7684 9.64946L19.7861 11.3916ZM22.1582 13.3848L20.5521 14.5765C20.8938 15.0371 21 15.4203 21 15.7629L23 15.7627L25 15.7625C24.9999 14.4476 24.5451 13.2453 23.7643 12.193L22.1582 13.3848ZM23 15.7627H21C21 16.4955 20.6093 17.4213 18.8023 18.4423L19.7861 20.1836L20.77 21.9249C23.2478 20.5249 25 18.5033 25 15.7627H23ZM19.7861 20.1836L18.8024 18.4423C18.1256 18.8246 17.3036 19.0005 16.1512 19.0474C14.8649 19.0997 13.7573 19 12 19L12 21L12 23C13.2906 23 15.0047 23.0973 16.3138 23.0441C17.7569 22.9854 19.304 22.7531 20.7699 21.9249L19.7861 20.1836ZM12 21V19C10.2427 19 9.13513 19.0997 7.84877 19.0474C6.69644 19.0005 5.87444 18.8246 5.19763 18.4423L4.21387 20.1836L3.2301 21.9249C4.696 22.7531 6.24311 22.9854 7.6862 23.0441C8.99524 23.0973 10.7094 23 12 23V21ZM4.21387 20.1836L5.19768 18.4423C3.3906 17.4213 3 16.4956 3 15.7627H1H-1C-1 18.5033 0.752089 20.5249 3.23006 21.9249L4.21387 20.1836ZM1 15.7627L3 15.7629C3.00003 15.4202 3.1062 15.0371 3.44792 14.5766L1.8418 13.3848L0.235674 12.193C-0.545194 13.2453 -0.999897 14.4476 -1 15.7625L1 15.7627ZM1.8418 13.3848L3.44787 14.5766C3.80231 14.099 4.35706 13.6064 5.19531 13.1337L4.21289 11.3916L3.23047 9.64952C2.02392 10.3299 0.997573 11.1663 0.235728 12.1929L1.8418 13.3848ZM4.21289 11.3916L6.10473 10.7428C6.03694 10.5451 6.00001 10.3327 6 10.0947L4 10.0947L2 10.0948C2.00003 10.763 2.10643 11.4146 2.32105 12.0404L4.21289 11.3916ZM4 10.0947H6C6 9.77773 6.08409 9.45325 6.31002 9.09044L4.6123 8.0332L2.91459 6.97596C2.32386 7.92456 2 8.97488 2 10.0947H4ZM4.6123 8.0332L6.30991 9.09063C6.20311 9.26207 6.14405 9.26179 6.38076 9.08434C6.56775 8.94416 6.83394 8.77041 7.17878 8.5627C7.93695 8.10602 8.63412 7.7382 9.50926 7.22667L8.5 5.5L7.49074 3.77333C6.86594 4.13853 5.82348 4.70947 5.11489 5.13628C4.72635 5.37031 4.32738 5.6245 3.98151 5.88378C3.68535 6.10579 3.22571 6.47648 2.9147 6.97578L4.6123 8.0332ZM8.5 5.5L9.50926 7.22667C10.6384 6.56666 11.5904 5.39881 12.1673 4.61478C12.7927 3.76496 13.2117 3.03554 13.2357 2.99367L11.5 2L9.76431 1.00633C9.77763 0.983066 9.44396 1.56682 8.94566 2.24394C8.39896 2.98685 7.85622 3.5597 7.49074 3.77333L8.5 5.5ZM11.5 2L10.3906 3.6641L14.8906 6.6641L16 5L17.1094 3.3359L12.6094 0.335899L11.5 2Z" fill="#0F172A" mask="url(#path-1-inside-1_2_1957)"/>
</svg>
