<svg width="24" height="24" viewBox="0 0 24 24" fill="none" xmlns="http://www.w3.org/2000/svg">
<path d="M14.9551 6L14.9551 5H14.9551V6ZM22.6953 8.20312H23.6953V8.20312L22.6953 8.20312ZM21.0234 10.1709L20.6064 9.26202L19.1824 9.91545L20.3747 10.9319L21.0234 10.1709ZM22 13.0723L23 13.0723V13.0723H22ZM12.4131 17.8838L12.4131 16.8838H12.3733L12.3337 16.8869L12.4131 17.8838ZM1 14.2354L0 14.2351V14.2354H1ZM9.12695 9.37109L9.29784 10.3564L10.6095 10.1289L10.0256 8.93251L9.12695 9.37109ZM9 8.83301H8V8.83334L9 8.83301ZM14.9551 6L14.9551 7C17.1936 7.00001 19.0237 7.08179 20.277 7.3683C20.906 7.51209 21.2891 7.68652 21.4973 7.84955C21.6626 7.97901 21.6953 8.07531 21.6953 8.20313L22.6953 8.20312L23.6953 8.20312C23.6953 7.38677 23.3187 6.73561 22.7305 6.27495C22.1851 5.84787 21.4705 5.58954 20.7227 5.41859C19.2223 5.07562 17.1823 5.00001 14.9551 5L14.9551 6ZM22.6953 8.20312H21.6953C21.6953 8.44276 21.5183 8.84357 20.6064 9.26202L21.0234 10.1709L21.4405 11.0798C22.5639 10.5643 23.6953 9.65479 23.6953 8.20312H22.6953ZM21.0234 10.1709L20.3747 10.9319C20.7559 11.2569 21 11.7978 21 13.0723H22H23C23 11.6109 22.7326 10.3139 21.6722 9.4099L21.0234 10.1709ZM22 13.0723L21 13.0723C21 14.2628 20.2692 15.1884 18.6994 15.8696C17.1124 16.5583 14.8717 16.8838 12.4131 16.8838L12.4131 17.8838L12.4131 18.8838C14.997 18.8838 17.5497 18.5487 19.4956 17.7043C21.4586 16.8524 23 15.3721 23 13.0723L22 13.0723ZM12.4131 17.8838L12.3337 16.8869C8.75102 17.1723 6.05061 16.8972 4.291 16.2954C2.48773 15.6787 2 14.8659 2 14.2354H1H0C0 16.1751 1.56664 17.4774 3.64382 18.1878C5.76467 18.9131 8.7708 19.177 12.4925 18.8806L12.4131 17.8838ZM1 14.2354L2 14.2356C2.00009 13.8046 2.41932 13.0522 3.8066 12.2202C5.11575 11.435 7.02276 10.751 9.29784 10.3564L9.12695 9.37109L8.95607 8.3858C6.50748 8.81048 4.35123 9.56142 2.77792 10.505C1.28275 11.4017 0.000330806 12.6719 0 14.2351L1 14.2354ZM9.12695 9.37109L10.0256 8.93251C10.0051 8.89049 10 8.85967 10 8.83268L9 8.83301L8 8.83334C8.00011 9.17634 8.08001 9.5059 8.22826 9.80968L9.12695 9.37109ZM9 8.83301H10C10 8.5547 10.1261 8.14971 10.8008 7.76219C11.5171 7.35083 12.8065 7 14.9551 7V6V5C12.6377 5 10.9496 5.37038 9.80476 6.02788C8.61844 6.70922 8 7.72073 8 8.83301H9Z" fill="#0F172A"/>
</svg>
