<svg width="24" height="24" viewBox="0 0 24 24" fill="none" xmlns="http://www.w3.org/2000/svg">
<path d="M21.0005 3C22.1049 3.00024 23.0005 3.89558 23.0005 5V19C23.0005 20.0355 22.2131 20.8868 21.2046 20.9893L21.0005 21H3.00049L2.79639 20.9893C1.85485 20.8938 1.10671 20.1456 1.01123 19.2041L1.00049 19V5C1.00049 3.89543 1.89592 3 3.00049 3H21.0005ZM3.00049 19H21.0005V5H3.00049V19ZM15.5005 6.25C16.1906 6.25026 16.7505 6.80981 16.7505 7.5V10.5C16.7505 11.1902 16.1906 11.7497 15.5005 11.75H8.50049C7.81013 11.75 7.25049 11.1904 7.25049 10.5V7.5C7.25049 6.80964 7.81013 6.25 8.50049 6.25H15.5005ZM8.75049 10.25H15.2505V7.75H8.75049V10.25Z" fill="#0F172A"/>
</svg>
